<svg width="35" height="32" viewBox="0 0 35 32" fill="none" xmlns="http://www.w3.org/2000/svg">
<path d="M7.09418 22.6142L7.0914 22.782L7.19047 22.9175C9.48385 26.0547 13.3983 28.1086 17.8083 28.1086C22.2182 28.1086 26.1327 26.0547 28.4261 22.9175L28.5252 22.782L28.5224 22.6142C28.5063 21.6456 27.9603 20.8387 27.2053 20.1964C26.4497 19.5536 25.434 19.029 24.3442 18.6148C22.165 17.7866 19.5641 17.3531 17.8083 17.3531C16.0441 17.3531 13.4432 17.7865 11.2658 18.6149C10.177 19.0291 9.16277 19.5537 8.40847 20.1967C7.65473 20.8392 7.11023 21.646 7.09418 22.6142ZM1.28467 16.4595C1.28467 8.23149 8.64176 1.47461 17.8083 1.47461C26.9748 1.47461 34.3319 8.23149 34.3319 16.4595C34.3319 24.6875 26.9748 31.4443 17.8083 31.4443C8.64176 31.4443 1.28467 24.6875 1.28467 16.4595ZM23.4154 10.2655C23.4154 7.37538 20.8647 5.12007 17.8083 5.12007C14.7518 5.12007 12.2012 7.37538 12.2012 10.2655C12.2012 13.1557 14.7518 15.411 17.8083 15.411C20.8647 15.411 23.4154 13.1557 23.4154 10.2655Z" stroke="white"/>
</svg>
